<svg width="350.6" height="75.201" viewBox="0 0 350.6 75.201" xmlns="http://www.w3.org/2000/svg">
<g id="svgGroup" stroke-linecap="round" fill-rule="evenodd" font-size="9pt" stroke="#000" stroke-width="0.25mm" fill="none" style="stroke:#000;stroke-width:0.25mm;fill:none">
<path d="M 0 74 L 0 0 L 9 0 L 9 42.3 L 32.5 21 L 37.7 26.7 L 17.6 44.5 L 42.1 69 L 35.9 75 L 9 47.3 L 9 74 L 0 74 Z M 268.8 74 L 268.8 0 L 277.8 0 L 277.8 42.3 L 301.3 21 L 306.5 26.7 L 286.4 44.5 L 310.9 69 L 304.7 75 L 277.8 47.3 L 277.8 74 L 268.8 74 Z M 109 67.4 L 114.9 60.7 A 22.787 22.787 0 0 0 119.584 64.531 A 16.566 16.566 0 0 0 128.3 67 Q 131.4 67 134.2 65.45 A 12.722 12.722 0 0 0 137.39 62.908 A 17.041 17.041 0 0 0 139.1 60.7 A 20.602 20.602 0 0 0 140.775 57.546 Q 141.747 55.291 142.45 52.45 Q 143.7 47.4 143.7 40.4 Q 140.6 43.3 136.85 45.15 A 18.148 18.148 0 0 1 129.506 46.981 A 21.357 21.357 0 0 1 128.6 47 Q 124.6 47 120.9 45.65 Q 117.2 44.3 114.3 41.6 A 19.305 19.305 0 0 1 110.408 36.471 A 23.054 23.054 0 0 1 109.65 34.9 A 20.291 20.291 0 0 1 108.235 29.989 A 27.472 27.472 0 0 1 107.9 25.6 Q 107.9 20.9 109.55 16.75 Q 111.2 12.6 114.15 9.5 A 21.39 21.39 0 0 1 120.992 4.714 A 24.356 24.356 0 0 1 121.25 4.6 A 21.844 21.844 0 0 1 127.706 2.942 A 26.806 26.806 0 0 1 130.5 2.8 A 28.398 28.398 0 0 1 134.477 3.064 Q 136.649 3.372 138.486 4.037 A 16.303 16.303 0 0 1 139.4 4.4 Q 143.1 6 145.6 8.6 Q 147.4 10.5 148.75 12.8 Q 149.966 14.871 150.857 17.753 A 34.38 34.38 0 0 1 151.05 18.4 Q 152 21.7 152.45 26.3 A 83.833 83.833 0 0 1 152.724 30.017 Q 152.9 33.338 152.9 37.4 Q 152.9 47.4 151 54.55 Q 149.306 60.925 146.419 65.273 A 24.869 24.869 0 0 1 145.7 66.3 A 23.408 23.408 0 0 1 141.779 70.483 A 19.257 19.257 0 0 1 137.75 73.05 A 22.724 22.724 0 0 1 128.805 75.181 A 26.546 26.546 0 0 1 127.8 75.2 A 28.172 28.172 0 0 1 121.976 74.621 A 22.735 22.735 0 0 1 117.4 73.15 Q 112.8 71.1 109 67.4 Z M 171.6 23.9 L 173.5 7.5 L 180.4 7.5 L 180.4 23.9 L 194.8 23.9 L 194.8 31.7 L 180.4 31.7 L 180.4 56.8 A 21.675 21.675 0 0 0 180.491 58.848 Q 180.587 59.849 180.781 60.713 A 11.029 11.029 0 0 0 181.05 61.7 Q 181.7 63.7 182.8 64.9 Q 183.9 66.1 185.45 66.65 Q 187 67.2 188.7 67.2 A 13.893 13.893 0 0 0 192.564 66.672 A 12.868 12.868 0 0 0 193.4 66.4 Q 195.6 65.6 197.6 64.5 L 200.1 71.7 A 18.546 18.546 0 0 1 198.482 72.556 Q 197.68 72.935 196.734 73.308 A 43.365 43.365 0 0 1 194.7 74.05 Q 191.3 75.2 187.6 75.2 A 18.502 18.502 0 0 1 182.418 74.511 A 13.951 13.951 0 0 1 175.75 70.3 A 15.787 15.787 0 0 1 172.574 64.576 Q 171.804 62.184 171.539 59.281 A 35.038 35.038 0 0 1 171.4 56.1 L 171.4 31.7 L 162.4 31.7 L 162.4 23.9 L 171.6 23.9 Z M 322.1 23.9 L 324 7.5 L 330.9 7.5 L 330.9 23.9 L 345.3 23.9 L 345.3 31.7 L 330.9 31.7 L 330.9 56.8 A 21.675 21.675 0 0 0 330.991 58.848 Q 331.087 59.849 331.281 60.713 A 11.029 11.029 0 0 0 331.55 61.7 Q 332.2 63.7 333.3 64.9 Q 334.4 66.1 335.95 66.65 Q 337.5 67.2 339.2 67.2 A 13.893 13.893 0 0 0 343.064 66.672 A 12.868 12.868 0 0 0 343.9 66.4 Q 346.1 65.6 348.1 64.5 L 350.6 71.7 A 18.546 18.546 0 0 1 348.982 72.556 Q 348.18 72.935 347.234 73.308 A 43.365 43.365 0 0 1 345.2 74.05 Q 341.8 75.2 338.1 75.2 A 18.502 18.502 0 0 1 332.918 74.511 A 13.951 13.951 0 0 1 326.25 70.3 A 15.787 15.787 0 0 1 323.074 64.576 Q 322.304 62.184 322.039 59.281 A 35.038 35.038 0 0 1 321.9 56.1 L 321.9 31.7 L 312.9 31.7 L 312.9 23.9 L 322.1 23.9 Z M 242.7 26.2 L 242.7 22 L 250.9 22 L 250.9 61.4 A 12.15 12.15 0 0 0 251.002 63.036 Q 251.334 65.47 252.75 66.35 Q 254.6 67.5 256.8 67.5 L 254.9 74.5 A 17.722 17.722 0 0 1 250.635 74.028 Q 244.998 72.628 243.403 67.08 A 13.59 13.59 0 0 1 243.3 66.7 Q 242.1 68.3 240.55 69.85 A 18.204 18.204 0 0 1 237.256 72.444 A 20.291 20.291 0 0 1 237 72.6 A 17.462 17.462 0 0 1 233.867 74.067 A 20.704 20.704 0 0 1 232.5 74.5 A 18.765 18.765 0 0 1 229.18 75.102 A 23.457 23.457 0 0 1 227 75.2 Q 222.1 75.2 217.85 73.3 Q 213.6 71.4 210.45 67.9 A 24.891 24.891 0 0 1 206.593 62.12 A 30.206 30.206 0 0 1 205.45 59.45 Q 203.6 54.5 203.6 48.3 Q 203.6 42.5 205.4 37.45 A 27.784 27.784 0 0 1 208.56 31.144 A 24.797 24.797 0 0 1 210.45 28.7 Q 213.7 25 218.25 22.9 A 23.124 23.124 0 0 1 227.029 20.825 A 27.082 27.082 0 0 1 228.2 20.8 A 22.584 22.584 0 0 1 232.994 21.29 A 18.703 18.703 0 0 1 236.35 22.35 A 26.002 26.002 0 0 1 240.637 24.644 A 22.103 22.103 0 0 1 242.7 26.2 Z M 46.164 41.659 A 34.196 34.196 0 0 0 45.6 48 A 34.702 34.702 0 0 0 45.73 51.027 A 28.722 28.722 0 0 0 47.55 59 A 29.451 29.451 0 0 0 48.061 60.228 A 25.437 25.437 0 0 0 52.95 67.6 Q 56.4 71.2 61.15 73.2 A 24.648 24.648 0 0 0 64.202 74.255 A 27.492 27.492 0 0 0 71.5 75.2 A 30.449 30.449 0 0 0 72.525 75.183 A 26.432 26.432 0 0 0 81.75 73.25 Q 86.5 71.3 90 67.7 A 23.825 23.825 0 0 0 91.846 65.56 A 26.161 26.161 0 0 0 95.45 59.05 A 27.814 27.814 0 0 0 96.783 54.411 A 34.074 34.074 0 0 0 97.4 47.8 A 34.924 34.924 0 0 0 97.164 43.679 A 27.811 27.811 0 0 0 95.4 36.6 A 28.718 28.718 0 0 0 94.738 35.074 A 24.42 24.42 0 0 0 89.9 28.1 Q 86.4 24.6 81.65 22.7 A 26.059 26.059 0 0 0 81.054 22.47 A 27.19 27.19 0 0 0 71.5 20.8 A 31.154 31.154 0 0 0 70.306 20.823 A 26.981 26.981 0 0 0 61.25 22.7 Q 56.5 24.6 53.05 28.1 Q 49.6 31.6 47.6 36.65 A 27.311 27.311 0 0 0 46.164 41.659 Z M 88.2 48 Q 88.2 44.1 86.95 40.6 A 19.563 19.563 0 0 0 84.575 35.945 A 17.715 17.715 0 0 0 83.45 34.5 Q 81.2 31.9 78.15 30.35 Q 75.1 28.8 71.5 28.8 A 19.249 19.249 0 0 0 66.274 29.472 A 14.037 14.037 0 0 0 59.2 34 A 17.878 17.878 0 0 0 55.526 41.374 Q 54.8 44.306 54.8 47.8 Q 54.8 51.7 56.05 55.25 A 20.131 20.131 0 0 0 58.363 59.888 A 18.151 18.151 0 0 0 59.55 61.45 Q 61.8 64.1 64.85 65.65 Q 67.9 67.2 71.5 67.2 A 18.689 18.689 0 0 0 75.418 66.805 A 15.186 15.186 0 0 0 78.5 65.8 Q 81.6 64.4 83.75 61.85 A 17.366 17.366 0 0 0 86.499 57.286 A 20.701 20.701 0 0 0 87.05 55.8 A 22.798 22.798 0 0 0 88.035 51.144 A 29.007 29.007 0 0 0 88.2 48 Z M 241.9 60.7 L 241.9 32.8 Q 239.2 30.9 235.95 29.75 Q 232.7 28.6 229.1 28.6 A 16.142 16.142 0 0 0 224.633 29.203 A 14.448 14.448 0 0 0 222.5 30 Q 219.5 31.4 217.35 33.95 A 17.393 17.393 0 0 0 214.843 37.953 A 21.502 21.502 0 0 0 214 40.1 A 23.426 23.426 0 0 0 212.917 45.381 A 28.621 28.621 0 0 0 212.8 48 A 25.723 25.723 0 0 0 213.269 52.996 A 21.781 21.781 0 0 0 214 55.75 A 19.283 19.283 0 0 0 215.876 59.774 A 16.545 16.545 0 0 0 217.4 61.85 Q 219.6 64.4 222.55 65.8 A 14.679 14.679 0 0 0 228.349 67.188 A 17.126 17.126 0 0 0 229 67.2 Q 232.8 67.2 236.2 65.4 Q 239.6 63.6 241.9 60.7 Z M 143.7 33.1 L 143.7 30.1 A 39.751 39.751 0 0 0 143.378 24.865 Q 143.021 22.184 142.268 20.002 A 15.762 15.762 0 0 0 140.05 15.7 A 12.066 12.066 0 0 0 135.916 12.103 Q 133.564 10.887 130.622 10.806 A 15.366 15.366 0 0 0 130.2 10.8 A 14.004 14.004 0 0 0 126.425 11.296 A 12.537 12.537 0 0 0 124.85 11.85 Q 122.4 12.9 120.55 14.75 A 12.802 12.802 0 0 0 118.002 18.432 A 15.093 15.093 0 0 0 117.65 19.25 A 14.847 14.847 0 0 0 116.727 22.984 A 18.788 18.788 0 0 0 116.6 25.2 Q 116.6 28.6 117.7 31.25 A 14.411 14.411 0 0 0 119.467 34.384 A 12.691 12.691 0 0 0 120.65 35.75 Q 122.5 37.6 124.95 38.6 Q 127.4 39.6 130.1 39.6 A 15.326 15.326 0 0 0 137.221 37.82 A 17.939 17.939 0 0 0 137.45 37.7 A 26.394 26.394 0 0 0 143.615 33.184 A 25.001 25.001 0 0 0 143.7 33.1 Z" vector-effect="non-scaling-stroke"/>
</g>
</svg>